<?xml version="1.0" encoding="UTF-8"?>
<svg width="29px" height="29px" viewBox="0 0 29 29" version="1.1" xmlns="http://www.w3.org/2000/svg" xmlns:xlink="http://www.w3.org/1999/xlink">
    <!-- Generator: Sketch 48.2 (47327) - http://www.bohemiancoding.com/sketch -->
    <title>hand-with-smartphone-and-wireless-internet</title>
    <desc>Created with Sketch.</desc>
    <defs></defs>
    <g id="Landing" stroke="none" stroke-width="1" fill="none" fill-rule="evenodd" transform="translate(-896.000000, -80.000000)">
        <g id="header" fill="#EB0029" fill-rule="nonzero">
            <g id="celular" transform="translate(896.000000, 80.000000)">
                <g id="hand-with-smartphone-and-wireless-internet">
                    <path d="M17.643,9.517 L17.403,9.757 C16.868,10.292 16.868,11.159 17.405,11.694 L17.51,11.799 C18.045,12.335 18.909,12.335 19.446,11.8 L21.256,9.992 L21.493,9.753 C22.028,9.218 22.028,8.35 21.493,7.815 L21.386,7.709 C20.854,7.174 19.987,7.174 19.449,7.709 L17.643,9.517 Z M21.627,10.366 L19.818,12.175 C19.286,12.708 19.286,13.576 19.818,14.111 L19.922,14.217 C20.457,14.751 21.323,14.751 21.859,14.217 L22.099,13.976 L23.666,12.411 L23.903,12.171 C24.44,11.636 24.438,10.771 23.905,10.233 L23.8,10.128 C23.266,9.594 22.401,9.591 21.863,10.127 L21.627,10.366 Z M27.598,19.158 L19.518,27.239 C18.844,27.913 17.741,27.913 17.069,27.24 L15.678,25.848 L14.206,27.318 C14.206,27.318 12.015,29.494 9.046,28.879 C9.023,28.874 8.999,28.871 8.977,28.866 C8.848,28.838 8.716,28.8 8.585,28.761 C8.478,28.729 8.366,28.691 8.257,28.651 C8.15,28.611 8.042,28.575 7.933,28.526 C7.714,28.431 7.495,28.323 7.272,28.193 C7.207,28.154 7.138,28.106 7.071,28.064 C6.884,27.949 6.696,27.818 6.507,27.674 C6.434,27.618 6.36,27.562 6.284,27.501 C6.032,27.298 5.779,27.079 5.524,26.823 C2.663,23.962 2.788,21.413 3.323,20.126 C3.325,20.122 3.761,18.516 4.29,16.602 C4.439,16.058 4.598,15.492 4.753,14.925 L1.39,11.561 C0.716,10.888 0.716,9.786 1.39,9.111 L9.47,1.032 C10.144,0.358 11.247,0.358 11.919,1.032 L16.607,5.718 L17.033,5.291 C17.568,4.756 18.435,4.758 18.971,5.291 L19.076,5.398 C19.611,5.932 19.611,6.798 19.076,7.334 L18.837,7.575 L17.272,9.141 L17.03,9.381 C16.498,9.914 15.634,9.917 15.095,9.381 L14.991,9.277 C14.457,8.741 14.457,7.874 14.991,7.339 L15.229,7.099 L15.229,7.098 L15.757,6.57 L11.787,2.601 L2.959,11.426 L5.127,13.592 C5.496,12.272 5.826,11.121 6,10.573 C6.549,8.834 7.935,8.898 8.594,9.956 C9.107,10.771 8.709,12.628 8.443,14.73 C8.39,15.145 8.251,15.827 8.089,16.551 L16.882,25.343 L25.705,16.518 L25.05,15.863 L24.28,16.633 C23.746,17.168 22.88,17.166 22.344,16.633 L22.237,16.526 C21.703,15.993 21.703,15.128 22.237,14.59 L22.477,14.35 L24.044,12.784 L24.281,12.544 C24.816,12.01 25.681,12.009 26.219,12.543 L26.323,12.648 C26.86,13.183 26.858,14.049 26.323,14.586 L26.086,14.824 L26.088,14.826 L25.9,15.012 L27.597,16.709 C28.271,17.382 28.271,18.483 27.598,19.158 Z M5.021,7.544 C5.101,7.626 5.236,7.624 5.316,7.543 L7.902,4.957 C7.984,4.876 7.984,4.743 7.902,4.662 C7.82,4.58 7.687,4.58 7.607,4.661 L5.021,7.247 C4.939,7.329 4.939,7.461 5.021,7.544 Z M22.945,21.362 C22.607,21.023 22.058,21.023 21.72,21.362 C21.382,21.701 21.384,22.249 21.72,22.587 C22.06,22.926 22.607,22.926 22.945,22.588 C23.282,22.249 23.282,21.702 22.945,21.362 Z" id="Shape"></path>
                </g>
            </g>
        </g>
    </g>
</svg>