<?xml version="1.0" encoding="UTF-8"?>
<svg width="23px" height="40px" viewBox="0 0 23 40" version="1.1" xmlns="http://www.w3.org/2000/svg" xmlns:xlink="http://www.w3.org/1999/xlink">
    <!-- Generator: Sketch 48.2 (47327) - http://www.bohemiancoding.com/sketch -->
    <title>smartphone</title>
    <desc>Created with Sketch.</desc>
    <defs></defs>
    <g id="Process_2" stroke="none" stroke-width="1" fill="none" fill-rule="evenodd" transform="translate(-501.000000, -507.000000)">
        <g id="form" transform="translate(184.000000, 212.000000)" fill="#EB0029" fill-rule="nonzero">
            <g id="id_capture" transform="translate(32.000000, 276.000000)">
                <g id="Camera_buton-Copy-3" transform="translate(256.000000, 0.000000)">
                    <g id="smartphone" transform="translate(29.000000, 19.000000)">
                        <path d="M19.3088553,0 L4.10367171,0 C2.22203024,0 0.691144708,1.53088553 0.691144708,3.412527 L0.691144708,7.60475162 C0.676803456,7.6038013 0.662548596,7.60259179 0.647948164,7.60259179 C0.290107991,7.60259179 0,7.89269978 0,8.25053996 L0,11.0151188 C0,11.372959 0.290107991,11.663067 0.647948164,11.663067 C0.662548596,11.663067 0.676803456,11.6618575 0.691144708,11.6609071 L0.691144708,13.1339093 C0.676803456,13.132959 0.662548596,13.1317495 0.647948164,13.1317495 C0.290107991,13.1317495 0,13.4218575 0,13.7796976 L0,16.5442765 C0,16.9021166 0.290107991,17.1922246 0.647948164,17.1922246 C0.662548596,17.1922246 0.676803456,17.1910151 0.691144708,17.1900648 L0.691144708,36.587473 C0.691144708,38.4691145 2.22203024,40 4.10367171,40 L19.3088553,40 C21.1904968,40 22.7213823,38.4691145 22.7213823,36.587473 L22.7213823,3.412527 C22.7213823,1.53088553 21.1904968,0 19.3088553,0 Z M21.425486,36.587473 C21.425486,37.7545572 20.4759395,38.7041037 19.3088553,38.7041037 L4.10367171,38.7041037 C2.93658747,38.7041037 1.98704104,37.7545572 1.98704104,36.587473 L1.98704104,3.412527 C1.98704104,2.24544276 2.93658747,1.29589633 4.10367171,1.29589633 L19.3088553,1.29589633 C20.4759395,1.29589633 21.425486,2.24544276 21.425486,3.412527 L21.425486,36.587473 Z" id="Shape"></path>
                        <path d="M5.48596112,2.76457883 C4.36647948,2.76457883 3.45572354,3.67533477 3.45572354,4.79481641 C3.45572354,5.91429806 4.36647948,6.825054 5.48596112,6.825054 C6.60544276,6.825054 7.5161987,5.91429806 7.5161987,4.79481641 C7.5161987,3.67533477 6.60544276,2.76457883 5.48596112,2.76457883 Z M5.48596112,5.52915767 C5.08103672,5.52915767 4.75161987,5.19974082 4.75161987,4.79481641 C4.75161987,4.38989201 5.08103672,4.06047516 5.48596112,4.06047516 C5.89088553,4.06047516 6.22030238,4.38989201 6.22030238,4.79481641 C6.22030238,5.19974082 5.89088553,5.52915767 5.48596112,5.52915767 Z" id="Shape"></path>
                        <path d="M12.3974082,6.0475162 C13.088121,6.0475162 13.650108,5.48552916 13.650108,4.79481641 C13.650108,4.10410367 13.088121,3.54211663 12.3974082,3.54211663 C11.7066955,3.54211663 11.1447084,4.10410367 11.1447084,4.79481641 C11.1447084,5.48552916 11.7066955,6.0475162 12.3974082,6.0475162 Z" id="Shape"></path>
                        <path d="M8.94168467,5.44276458 L9.63282937,5.44276458 C9.99066955,5.44276458 10.2807775,5.15265659 10.2807775,4.79481641 C10.2807775,4.43697624 9.99066955,4.14686825 9.63282937,4.14686825 L8.94168467,4.14686825 C8.58384449,4.14686825 8.2937365,4.43697624 8.2937365,4.79481641 C8.2937365,5.15265659 8.58384449,5.44276458 8.94168467,5.44276458 Z" id="Shape"></path>
                    </g>
                </g>
            </g>
        </g>
    </g>
</svg>