<?xml version="1.0" encoding="UTF-8"?>
<svg width="32px" height="40px" viewBox="0 0 32 40" version="1.1" xmlns="http://www.w3.org/2000/svg" xmlns:xlink="http://www.w3.org/1999/xlink">
    <!-- Generator: Sketch 48.2 (47327) - http://www.bohemiancoding.com/sketch -->
    <title>upload</title>
    <desc>Created with Sketch.</desc>
    <defs></defs>
    <g id="Process_4" stroke="none" stroke-width="1" fill="none" fill-rule="evenodd" transform="translate(-787.000000, -675.000000)">
        <g id="form" transform="translate(184.000000, 214.000000)" fill="#EB0029" fill-rule="nonzero">
            <g id="upload_house" transform="translate(31.000000, 369.000000)">
                <g id="drag_drop" transform="translate(463.000000, 73.000000)">
                    <g id="upload" transform="translate(109.000000, 19.000000)">
                        <g id="Group" transform="translate(9.411765, 14.117647)">
                            <path d="M6.64235294,15.0423529 C6.31764706,15.0423529 6.05411765,14.7788235 6.05411765,14.4541176 L6.05529412,1.18470588 C6.05529412,0.86 6.31882353,0.596470588 6.64352941,0.596470588 C6.96823529,0.596470588 7.23176471,0.86 7.23176471,1.18470588 L7.23058824,14.4541176 C7.23058824,14.7788235 6.96705882,15.0423529 6.64235294,15.0423529 Z" id="Shape"></path>
                            <path d="M11.7164706,6.84588235 C11.5658824,6.84588235 11.4152941,6.78823529 11.3,6.67411765 L6.64235294,2.01647059 L1.98470588,6.67411765 C1.75529412,6.90352941 1.38235294,6.90352941 1.15294118,6.67411765 C0.923529412,6.44470588 0.923529412,6.07176471 1.15294118,5.84235294 L6.22705882,0.768235294 C6.45647059,0.538823529 6.82941176,0.538823529 7.05882353,0.768235294 L12.1329412,5.84235294 C12.3623529,6.07176471 12.3623529,6.44470588 12.1329412,6.67411765 C12.0176471,6.78823529 11.8670588,6.84588235 11.7164706,6.84588235 Z" id="Shape"></path>
                        </g>
                        <g id="Group">
                            <path d="M28.9152941,39.1682353 L3.19411765,39.1682353 C1.57294118,39.1682353 0.252941176,37.8494118 0.252941176,36.2270588 L0.252941176,2.94117647 C0.252941176,1.31882353 1.57294118,0 3.19411765,0 L21.8729412,0 C22.1976471,0 22.4611765,0.263529412 22.4611765,0.588235294 C22.4611765,0.912941176 22.1976471,1.17647059 21.8729412,1.17647059 L3.19411765,1.17647059 C2.22117647,1.17647059 1.42941176,1.96823529 1.42941176,2.94117647 L1.42941176,36.2270588 C1.42941176,37.2 2.22117647,37.9917647 3.19411765,37.9917647 L28.9152941,37.9917647 C29.8882353,37.9917647 30.68,37.2 30.68,36.2270588 L30.68,10.24 C30.68,9.91529412 30.9435294,9.65176471 31.2682353,9.65176471 C31.5929412,9.65176471 31.8564706,9.91529412 31.8564706,10.24 L31.8564706,36.2282353 C31.8564706,37.8494118 30.5376471,39.1682353 28.9152941,39.1682353 Z" id="Shape"></path>
                            <path d="M31.2682353,10.8282353 L21.8729412,10.8282353 C21.5482353,10.8282353 21.2847059,10.5647059 21.2847059,10.24 L21.2847059,0.843529412 C21.2847059,0.518823529 21.5482353,0.255294118 21.8729412,0.255294118 C22.1976471,0.255294118 22.4611765,0.518823529 22.4611765,0.843529412 L22.4611765,9.65058824 L31.2682353,9.65058824 C31.5929412,9.65058824 31.8564706,9.91411765 31.8564706,10.2388235 C31.8564706,10.5635294 31.5941176,10.8282353 31.2682353,10.8282353 Z" id="Shape"></path>
                            <path d="M31.2682353,10.8282353 C31.1152941,10.8282353 30.9623529,10.7682353 30.8470588,10.6505882 L21.4517647,1 C21.2258824,0.768235294 21.2305882,0.394117647 21.4635294,0.168235294 C21.6952941,-0.0588235294 22.0682353,-0.0529411765 22.2952941,0.18 L31.6905882,9.83058824 C31.9164706,10.0623529 31.9117647,10.4364706 31.6788235,10.6623529 C31.5647059,10.7729412 31.4164706,10.8282353 31.2682353,10.8282353 Z" id="Shape"></path>
                        </g>
                    </g>
                </g>
            </g>
        </g>
    </g>
</svg>